<svg width="1026" height="1000" viewBox="0 0 1026 1000" fill="none" xmlns="http://www.w3.org/2000/svg">
<path fill-rule="evenodd" clip-rule="evenodd" d="M623.578 222.736C630.602 209.534 624.552 193.084 610.226 188.796C523.687 162.893 427.074 171.321 342.67 220.052C180.05 313.94 124.333 521.881 218.221 684.5C312.11 847.12 520.05 902.837 682.67 808.949C845.289 715.061 901.007 507.12 807.118 344.5C803.583 338.376 799.885 332.404 796.035 326.586C789.083 316.081 775.105 313.331 764.196 319.63L700.128 356.619C686.44 364.522 683.513 382.985 692.198 396.19C694.51 399.706 696.734 403.309 698.865 407C758.236 509.833 723.003 641.325 620.17 700.696C517.337 760.066 385.845 724.833 326.474 622C267.104 519.167 302.337 387.676 405.17 328.305C453.065 300.653 507.177 293.523 557.324 304.187C569.11 306.693 581.527 301.765 587.187 291.127L623.578 222.736Z" fill="#5ECDFF"/>
<rect x="449.6" y="501.261" width="357" height="125" rx="25" transform="rotate(-30 449.6 501.261)" fill="#004881"/>
<path fill-rule="evenodd" clip-rule="evenodd" d="M725.915 486.646C722.362 459.363 713.48 432.313 698.865 407C691.502 394.247 683.03 382.534 673.641 371.912L783.286 308.608C791.867 319.915 799.836 331.886 807.118 344.5C821.344 369.14 832.135 394.82 839.641 420.986L725.915 486.646Z" fill="#00ADFC"/>
</svg>
