<svg width="3737" height="1000" viewBox="0 0 3737 1000" fill="none" xmlns="http://www.w3.org/2000/svg">
<g clip-path="url(#clip0_914:406)">
<path fill-rule="evenodd" clip-rule="evenodd" d="M623.578 222.736C630.602 209.534 624.552 193.084 610.226 188.796C523.687 162.893 427.074 171.321 342.669 220.052C180.05 313.94 124.332 521.881 218.221 684.5C312.109 847.12 520.05 902.837 682.669 808.949C845.289 715.061 901.006 507.12 807.118 344.5C803.582 338.376 799.885 332.404 796.034 326.586C789.082 316.081 775.105 313.331 764.196 319.63L700.127 356.619C686.439 364.522 683.513 382.985 692.198 396.19C694.51 399.706 696.734 403.309 698.865 407C758.235 509.833 723.002 641.325 620.169 700.696C517.336 760.066 385.844 724.833 326.474 622C267.103 519.167 302.336 387.676 405.169 328.305C453.065 300.653 507.177 293.523 557.324 304.187C569.109 306.693 581.527 301.765 587.187 291.127L623.578 222.736Z" fill="#5ECDFF"/>
<rect x="449.601" y="501.261" width="357" height="125" rx="25" transform="rotate(-30 449.601 501.261)" fill="#004881"/>
<path fill-rule="evenodd" clip-rule="evenodd" d="M725.914 486.646C722.362 459.363 713.479 432.313 698.865 407C691.502 394.247 683.03 382.534 673.64 371.912L783.286 308.608C791.866 319.915 799.835 331.886 807.118 344.5C821.344 369.14 832.135 394.82 839.64 420.986L725.914 486.646Z" fill="#00ADFC"/>
<path d="M1241.6 646.15C1241.6 659.15 1240.73 670.85 1239 681.25H975.75C977.917 707.25 987.017 727.617 1003.05 742.35C1019.08 757.083 1038.8 764.45 1062.2 764.45C1096 764.45 1120.05 749.933 1134.35 720.9H1232.5C1222.1 755.567 1202.17 784.167 1172.7 806.7C1143.23 828.8 1107.05 839.85 1064.15 839.85C1029.48 839.85 998.283 832.267 970.55 817.1C943.25 801.5 921.8 779.617 906.2 751.45C891.033 723.283 883.45 690.783 883.45 653.95C883.45 616.683 891.033 583.967 906.2 555.8C921.367 527.633 942.6 505.967 969.9 490.8C997.2 475.633 1028.62 468.05 1064.15 468.05C1098.38 468.05 1128.93 475.417 1155.8 490.15C1183.1 504.883 1204.12 525.9 1218.85 553.2C1234.02 580.067 1241.6 611.05 1241.6 646.15ZM1147.35 620.15C1146.92 596.75 1138.47 578.117 1122 564.25C1105.53 549.95 1085.38 542.8 1061.55 542.8C1039.02 542.8 1019.95 549.733 1004.35 563.6C989.183 577.033 979.867 595.883 976.4 620.15H1147.35ZM1507.57 468.7C1550.47 468.7 1585.14 482.35 1611.57 509.65C1638.01 536.517 1651.22 574.217 1651.22 622.75V834H1560.22V635.1C1560.22 606.5 1553.07 584.617 1538.77 569.45C1524.47 553.85 1504.97 546.05 1480.27 546.05C1455.14 546.05 1435.21 553.85 1420.47 569.45C1406.17 584.617 1399.02 606.5 1399.02 635.1V834H1308.02V473.9H1399.02V518.75C1411.16 503.15 1426.54 491.017 1445.17 482.35C1464.24 473.25 1485.04 468.7 1507.57 468.7ZM2072.51 646.15C2072.51 659.15 2071.64 670.85 2069.91 681.25H1806.66C1808.82 707.25 1817.92 727.617 1833.96 742.35C1849.99 757.083 1869.71 764.45 1893.11 764.45C1926.91 764.45 1950.96 749.933 1965.26 720.9H2063.41C2053.01 755.567 2033.07 784.167 2003.61 806.7C1974.14 828.8 1937.96 839.85 1895.06 839.85C1860.39 839.85 1829.19 832.267 1801.46 817.1C1774.16 801.5 1752.71 779.617 1737.11 751.45C1721.94 723.283 1714.36 690.783 1714.36 653.95C1714.36 616.683 1721.94 583.967 1737.11 555.8C1752.27 527.633 1773.51 505.967 1800.81 490.8C1828.11 475.633 1859.52 468.05 1895.06 468.05C1929.29 468.05 1959.84 475.417 1986.71 490.15C2014.01 504.883 2035.02 525.9 2049.76 553.2C2064.92 580.067 2072.51 611.05 2072.51 646.15ZM1978.26 620.15C1977.82 596.75 1969.37 578.117 1952.91 564.25C1936.44 549.95 1916.29 542.8 1892.46 542.8C1869.92 542.8 1850.86 549.733 1835.26 563.6C1820.09 577.033 1810.77 595.883 1807.31 620.15H1978.26ZM2229.93 529.8C2241.63 510.733 2256.8 495.783 2275.43 484.95C2294.5 474.117 2316.16 468.7 2340.43 468.7V564.25H2316.38C2287.78 564.25 2266.11 570.967 2251.38 584.4C2237.08 597.833 2229.93 621.233 2229.93 654.6V834H2138.93V473.9H2229.93V529.8ZM2378.32 652.65C2378.32 616.25 2385.47 583.967 2399.77 555.8C2414.51 527.633 2434.22 505.967 2458.92 490.8C2484.06 475.633 2512.01 468.05 2542.77 468.05C2569.64 468.05 2593.04 473.467 2612.97 484.3C2633.34 495.133 2649.59 508.783 2661.72 525.25V473.9H2753.37V834H2661.72V781.35C2650.02 798.25 2633.77 812.333 2612.97 823.6C2592.61 834.433 2568.99 839.85 2542.12 839.85C2511.79 839.85 2484.06 832.05 2458.92 816.45C2434.22 800.85 2414.51 778.967 2399.77 750.8C2385.47 722.2 2378.32 689.483 2378.32 652.65ZM2661.72 653.95C2661.72 631.85 2657.39 613 2648.72 597.4C2640.06 581.367 2628.36 569.233 2613.62 561C2598.89 552.333 2583.07 548 2566.17 548C2549.27 548 2533.67 552.117 2519.37 560.35C2505.07 568.583 2493.37 580.717 2484.27 596.75C2475.61 612.35 2471.27 630.983 2471.27 652.65C2471.27 674.317 2475.61 693.383 2484.27 709.85C2493.37 725.883 2505.07 738.233 2519.37 746.9C2534.11 755.567 2549.71 759.9 2566.17 759.9C2583.07 759.9 2598.89 755.783 2613.62 747.55C2628.36 738.883 2640.06 726.75 2648.72 711.15C2657.39 695.117 2661.72 676.05 2661.72 653.95ZM2948.2 548.65V722.85C2948.2 734.983 2951.02 743.867 2956.65 749.5C2962.72 754.7 2972.68 757.3 2986.55 757.3H3028.8V834H2971.6C2894.9 834 2856.55 796.733 2856.55 722.2V548.65H2813.65V473.9H2856.55V384.85H2948.2V473.9H3028.8V548.65H2948.2ZM3254.15 839.85C3219.49 839.85 3188.29 832.267 3160.55 817.1C3132.82 801.5 3110.94 779.617 3094.9 751.45C3079.3 723.283 3071.5 690.783 3071.5 653.95C3071.5 617.117 3079.52 584.617 3095.55 556.45C3112.02 528.283 3134.34 506.617 3162.5 491.45C3190.67 475.85 3222.09 468.05 3256.75 468.05C3291.42 468.05 3322.84 475.85 3351 491.45C3379.17 506.617 3401.27 528.283 3417.3 556.45C3433.77 584.617 3442 617.117 3442 653.95C3442 690.783 3433.55 723.283 3416.65 751.45C3400.19 779.617 3377.65 801.5 3349.05 817.1C3320.89 832.267 3289.25 839.85 3254.15 839.85ZM3254.15 760.55C3270.62 760.55 3286 756.65 3300.3 748.85C3315.04 740.617 3326.74 728.483 3335.4 712.45C3344.07 696.417 3348.4 676.917 3348.4 653.95C3348.4 619.717 3339.3 593.5 3321.1 575.3C3303.34 556.667 3281.45 547.35 3255.45 547.35C3229.45 547.35 3207.57 556.667 3189.8 575.3C3172.47 593.5 3163.8 619.717 3163.8 653.95C3163.8 688.183 3172.25 714.617 3189.15 733.25C3206.49 751.45 3228.15 760.55 3254.15 760.55ZM3599.75 529.8C3611.45 510.733 3626.62 495.783 3645.25 484.95C3664.32 474.117 3685.99 468.7 3710.25 468.7V564.25H3686.2C3657.6 564.25 3635.94 570.967 3621.2 584.4C3606.9 597.833 3599.75 621.233 3599.75 654.6V834H3508.75V473.9H3599.75V529.8Z" fill="#5DCDFF"/>
</g>
<defs>
<clipPath id="clip0_914:406">
<rect width="3737" height="1000" fill="white"/>
</clipPath>
</defs>
</svg>
